HIERARCHY
ROOT Hips
{
	OFFSET 0.00000 0.00000 0.00000
	CHANNELS 6 Xposition Yposition Zposition Zrotation Yrotation Xrotation 
	JOINT LHipJoint
	{
		OFFSET 0 0 0
		CHANNELS 3 Zrotation Yrotation Xrotation
		JOINT LeftHip
		{
			OFFSET 1.80322 -1.53100 0.99595
			CHANNELS 3 Zrotation Yrotation Xrotation
			JOINT LeftKnee
			{
				OFFSET 2.25177 -6.18669 0.00000
				CHANNELS 3 Zrotation Yrotation Xrotation
				JOINT LeftAnkle
				{
					OFFSET 2.26601 -6.22582 0.00000
					CHANNELS 3 Zrotation Yrotation Xrotation
					JOINT LeftToe
					{
						OFFSET 0.23701 -0.65119 2.15848
						CHANNELS 3 Zrotation Yrotation Xrotation
						End Site
						{
							OFFSET 0.00000 -0.00000 1.12949
						}
					}
				}
			}
		}
	}
	JOINT RHipJoint
	{
		OFFSET 0 0 0
		CHANNELS 3 Zrotation Yrotation Xrotation
		JOINT RightHip
		{
			OFFSET -1.93977 -1.53100 0.99595
			CHANNELS 3 Zrotation Yrotation Xrotation
			JOINT RightKnee
			{
				OFFSET -2.28036 -6.26523 0.00000
				CHANNELS 3 Zrotation Yrotation Xrotation
				JOINT RightAnkle
				{
					OFFSET -2.25490 -6.19528 0.00000
					CHANNELS 3 Zrotation Yrotation Xrotation
					JOINT RightToe
					{
						OFFSET -0.28375 -0.77960 2.23137
						CHANNELS 3 Zrotation Yrotation Xrotation
						End Site
						{
							OFFSET -0.00000 -0.00000 1.17899
						}
					}
				}
			}
		}
	}
	JOINT lowerback
	{
		OFFSET 0 0 0
		CHANNELS 3 Zrotation Yrotation Xrotation
		JOINT Chest
		{
			OFFSET -0.00088 2.12090 -0.02806
			CHANNELS 3 Zrotation Yrotation Xrotation
			JOINT Chest2
			{
				OFFSET -0.00286 2.09666 0.12974
				CHANNELS 3 Zrotation Yrotation Xrotation
				JOINT lowerneck
				{
					OFFSET 0 0 0
					CHANNELS 3 Zrotation Yrotation Xrotation
					JOINT Neck
					{
						OFFSET 0.07328 1.83526 0.07290
						CHANNELS 3 Zrotation Yrotation Xrotation
						JOINT Head
						{
							OFFSET -0.06683 1.74974 -0.49542
							CHANNELS 3 Zrotation Yrotation Xrotation
							End Site
							{
								OFFSET -0.03398 1.85163 -0.17573
							}
						}
					}
				}
				JOINT LeftCollar
				{
					OFFSET 0 0 0
					CHANNELS 3 Zrotation Yrotation Xrotation
					JOINT LeftShoulder
					{
						OFFSET 3.02113 1.18018 0.40602
CHANNELS 3 Zrotation Xrotation Yrotation
						JOINT LeftElbow
						{
OFFSET 0 -4.585380 -0.000000
CHANNELS 3 Zrotation Xrotation Yrotation
							JOINT LeftWrist
							{
OFFSET 0 -2.689350 -0.000000
CHANNELS 3 Zrotation Xrotation Yrotation
								JOINT lhand
								{
									OFFSET 0 0 0
CHANNELS 3 Zrotation Xrotation Yrotation
									JOINT LFingers
									{
OFFSET 0 -0.585060 -0.000000
CHANNELS 3 Zrotation Xrotation Yrotation
										End Site
										{
OFFSET 0 -0.471690 -0.000000
										}
									}
								}
								JOINT LThumb
								{
OFFSET 0 0.000000 0.000000
CHANNELS 3 Zrotation Xrotation Yrotation
									End Site
									{
OFFSET 0 -0.478890 0.478890
									}
								}
							}
						}
					}
				}
				JOINT RightCollar
				{
					OFFSET 0 0 0
					CHANNELS 3 Zrotation Yrotation Xrotation
					JOINT RightShoulder
					{
						OFFSET -2.95074 1.18843 0.31430
CHANNELS 3 Zrotation Xrotation Yrotation
						JOINT RightElbow
						{
OFFSET 0 -4.474500 -0.000000
CHANNELS 3 Zrotation Xrotation Yrotation
							JOINT RightWrist
							{
OFFSET 0 -2.938960 -0.000000
CHANNELS 3 Zrotation Xrotation Yrotation
								JOINT rhand
								{
									OFFSET 0 0 0
CHANNELS 3 Zrotation Xrotation Yrotation
									JOINT RFingers
									{
OFFSET 0 -0.405090 -0.000000
CHANNELS 3 Zrotation Xrotation Yrotation
										End Site
										{
OFFSET 0 -0.326600 -0.000000
										}
									}
								}
								JOINT RThumb
								{
OFFSET 0 0.000000 0.000000
CHANNELS 3 Zrotation Xrotation Yrotation
									End Site
									{
OFFSET 0 -0.331580 0.331580
									}
								}
							}
						}
					}
				}
			}
		}
	}
}
MOTION
Frames: 8
Frame Time: 0.008333333333333333
-4.158144 15.694508 7.563066 -178.412810 194.867277 -172.360272 0.000000 0.000000 0.000000 -25.793170 -8.708805 -22.684764 1.176706 6.884708 19.374346 -0.020129 4.557530 -5.702929 0.562346 4.803237 13.348232 0.000000 0.000000 0.000000 18.735169 1.714557 -4.292864 -4.349134 -12.609065 37.925200 -0.961282 4.539508 -17.560747 -1.487353 7.704466 -21.820094 0.563173 1.464368 -8.032212 -2.094903 1.873584 -5.861661 -2.352576 0.873232 -1.474509 11.440701 4.609733 -12.289763 -4.805031 5.476464 41.113368 -3.292650 3.341574 17.832947 0.000000 0.000000 0.000000 5.572113 15.004242 -10.622567 15.633114 -25.020700 3.489356 2.727190 24.712384 -11.320029 0.000000 0.000000 0.000000 -7.125000 0.000000 0.000000 -21.279286 40.346782 -2.575602 0.000000 0.000000 0.000000 -2.152714 4.182995 14.954257 -10.853141 -18.062495 -1.730324 -9.104534 23.882448 5.098386 0.000000 0.000000 0.000000 7.125000 0.000000 0.000000 14.487395 34.837966 3.714216
-4.043843 15.765521 8.240882 -178.193436 195.265603 -172.555496 0.000000 0.000000 0.000000 -27.904895 -6.291658 -19.177083 0.895329 6.030577 16.873272 0.041344 3.475320 -6.589519 0.626325 5.064073 14.091457 0.000000 0.000000 0.000000 16.213831 2.298153 -9.225232 -6.567709 -14.956605 47.219488 -0.094179 5.085983 -6.073173 -1.878901 8.609086 -24.579915 0.649579 1.395069 -7.606014 -1.765594 1.776779 -5.912883 -2.078636 0.825365 -1.773816 11.329714 4.753180 -12.407584 -5.549748 5.999374 40.062769 -3.485725 3.415007 17.344510 0.000000 0.000000 0.000000 5.718628 13.858615 -13.437375 16.872887 -26.689846 4.030081 3.631195 22.953907 -11.628312 0.000000 0.000000 0.000000 -7.125000 0.000000 0.000000 -20.620929 40.715243 -2.289953 0.000000 0.000000 0.000000 -3.533829 4.883428 10.442781 -9.861460 -16.522641 -1.435343 -8.527762 28.718129 5.409065 0.000000 0.000000 0.000000 7.125000 0.000000 0.000000 15.012983 35.112679 3.753125
-3.961448 15.806478 8.759892 -177.706080 195.638255 -172.625422 0.000000 0.000000 0.000000 -29.604405 -5.374174 -15.602246 0.591102 4.921743 13.685595 0.036195 3.957752 -6.969194 0.639081 5.114360 14.234973 0.000000 0.000000 0.000000 13.888279 3.203182 -14.387125 -9.098157 -16.869331 56.427232 -0.037104 2.606559 5.482266 -0.718997 5.407190 -15.076447 -0.190986 1.077184 -7.135039 -1.391565 1.400387 -5.800681 -1.251695 0.669236 -1.959782 11.685985 5.017029 -12.109669 -6.115722 6.500096 38.684864 -3.668569 3.576607 16.619553 0.000000 0.000000 0.000000 6.373857 12.923159 -17.912836 19.481663 -30.012323 5.269787 4.541829 19.524902 -11.954329 0.000000 0.000000 0.000000 -7.125000 0.000000 0.000000 -19.956710 41.103955 -2.007979 0.000000 0.000000 0.000000 -4.974975 4.969538 11.888138 -10.593873 -17.663032 -1.650680 -10.047543 24.295646 4.882644 0.000000 0.000000 0.000000 7.125000 0.000000 0.000000 13.686125 34.671512 3.555363
-3.904777 15.815063 9.163861 -177.443165 196.201853 -172.712669 0.000000 0.000000 0.000000 -30.754797 -4.555670 -12.947003 0.413919 4.129612 11.441620 0.028557 4.543466 -7.438052 0.628524 5.072897 14.116522 0.000000 0.000000 0.000000 12.503049 3.795922 -19.728792 -11.679058 -18.251203 64.967296 -0.327593 -1.320169 10.431819 -0.000717 -0.115121 0.316286 -0.908345 0.707292 -6.463583 -1.186005 0.937620 -5.650670 -0.670018 0.463909 -2.199767 12.320369 5.387444 -12.073834 -6.186829 6.866676 38.083058 -3.723646 3.796815 16.386719 0.000000 0.000000 0.000000 7.652336 11.587004 -21.267811 21.791052 -32.739856 6.472547 5.347739 18.087413 -11.789818 0.000000 0.000000 0.000000 -7.125000 0.000000 0.000000 -19.224440 41.022304 -1.968199 0.000000 0.000000 0.000000 -5.510811 4.399868 15.557185 -12.137703 -20.010651 -2.149260 -11.170355 18.371652 5.124964 0.000000 0.000000 0.000000 7.125000 0.000000 0.000000 12.818661 34.965130 3.226189
-3.858743 15.811972 9.480773 -177.436993 197.044386 -172.491993 0.000000 0.000000 0.000000 -31.361646 -4.175768 -11.840119 0.386643 3.993186 11.057484 0.054053 5.010838 -8.715495 0.666640 5.221497 14.541296 0.000000 0.000000 0.000000 12.104608 4.430746 -24.472548 -13.340101 -18.901446 70.178426 -0.173871 -2.187910 7.420338 -0.004915 -0.448936 1.233496 -1.306595 0.530165 -6.065186 -1.019082 0.714053 -5.554640 -0.288335 0.367819 -2.329611 12.780737 5.720793 -12.223900 -6.455701 7.296957 37.726048 -3.831629 3.993441 16.342158 0.000000 0.000000 0.000000 8.301754 10.130400 -22.188602 23.195715 -34.302102 7.248310 6.035906 16.951645 -11.871212 0.000000 0.000000 0.000000 -7.125000 0.000000 0.000000 -18.665586 41.162265 -1.838978 0.000000 0.000000 0.000000 -5.613179 3.860990 19.605182 -13.995882 -22.728793 -2.826629 -11.991748 12.424256 4.708402 0.000000 0.000000 0.000000 7.125000 0.000000 0.000000 12.082131 34.588946 3.146348
-3.832453 15.810147 9.746565 -177.471701 197.799578 -172.407529 0.000000 0.000000 0.000000 -31.740380 -3.833885 -10.919215 0.388345 4.001662 11.081253 0.093675 5.131934 -9.796847 0.695323 5.330493 14.853516 0.000000 0.000000 0.000000 12.225206 5.753832 -27.415893 -13.584745 -18.983209 70.932072 -0.460474 -2.394273 12.207444 -0.001370 0.232741 -0.639454 -1.853809 0.274370 -5.645640 -0.798998 0.388483 -5.453392 0.229880 0.226944 -2.462762 13.135868 6.103981 -12.484136 -6.739360 7.840302 37.692199 -3.915398 4.223102 16.511149 0.000000 0.000000 0.000000 8.210061 9.508627 -22.161772 23.782760 -34.933712 7.581794 7.125061 16.609064 -11.799350 0.000000 0.000000 0.000000 -7.125000 0.000000 0.000000 -17.717246 41.193273 -1.724352 0.000000 0.000000 0.000000 -5.616605 3.202380 22.931759 -15.337536 -24.614145 -3.365332 -12.124491 9.858867 4.697755 0.000000 0.000000 0.000000 7.125000 0.000000 0.000000 11.972651 34.584250 3.118164
-3.835617 15.812376 9.956688 -177.526574 198.028574 -172.207619 0.000000 0.000000 0.000000 -31.881681 -3.591167 -10.201721 0.380405 3.961000 10.966945 0.141047 4.818541 -10.478187 0.724534 5.438882 15.164729 0.000000 0.000000 0.000000 12.321680 7.437662 -28.731314 -13.472752 -18.946197 70.587679 -0.909514 -3.852638 17.138868 -0.006209 0.499441 -1.372517 -2.342726 0.052792 -5.401405 -0.777669 0.101012 -5.494579 0.515116 0.100788 -2.639501 13.438053 6.365457 -12.624074 -6.858139 8.180902 37.850533 -3.961217 4.388860 16.714140 0.000000 0.000000 0.000000 8.152885 9.901788 -22.881222 23.994033 -35.157974 7.703128 6.760386 16.953184 -11.396727 0.000000 0.000000 0.000000 -7.125000 0.000000 0.000000 -17.911078 40.775283 -1.936580 0.000000 0.000000 0.000000 -5.297421 2.962218 24.737719 -16.007303 -25.530578 -3.649078 -11.770730 9.368034 4.597730 0.000000 0.000000 0.000000 7.125000 0.000000 0.000000 12.243328 34.468456 3.226704
-3.861282 15.805546 10.106619 -178.010499 198.224684 -171.414097 0.000000 0.000000 0.000000 -31.259131 -4.276892 -10.235185 0.426579 4.191732 11.616699 0.241894 4.456312 -12.015706 0.886122 6.000408 16.785593 0.000000 0.000000 0.000000 12.481011 9.642015 -30.672674 -14.784818 -19.334948 74.587574 -0.030761 0.615754 3.536566 -0.349501 3.795418 -10.502092 -2.399625 0.019248 -5.345933 -0.761609 0.051103 -5.674668 0.561517 0.080658 -2.857197 13.629239 6.675469 -12.965691 -7.264589 8.718554 37.732015 -4.065124 4.576057 16.861346 0.000000 0.000000 0.000000 7.742149 10.677194 -22.645131 23.804968 -34.957387 7.594513 6.160593 17.520180 -11.047754 0.000000 0.000000 0.000000 -7.125000 0.000000 0.000000 -18.318346 40.389527 -2.165654 0.000000 0.000000 0.000000 -5.037267 3.264827 25.168548 -16.244170 -25.850572 -3.751788 -11.528261 9.136987 4.074678 0.000000 0.000000 0.000000 7.125000 0.000000 0.000000 12.355242 33.936559 3.420407
